<svg xmlns="http://www.w3.org/2000/svg" version="1.1" xmlns:xlink="http://www.w3.org/1999/xlink" xmlns:svgjs="http://svgjs.dev/svgjs" viewBox="0 0 800 800" opacity="0.9" width="800" height="800"><g stroke-width="0.5" stroke="hsla(140, 97%, 49%, 1.00)" fill="none"><rect width="36.36363636363637" height="1" x="-18.181818181818183" y="-0.5" stroke="none" fill="hsla(140, 97%, 49%, 1.00)" rx="0.5"></rect><rect width="1" height="36.36363636363637" x="-0.5" y="-18.181818181818183" stroke="none" fill="hsla(140, 97%, 49%, 1.00)" rx="0.5"></rect><rect width="36.36363636363637" height="1" x="54.54545454545455" y="-0.5" stroke="none" fill="hsla(140, 97%, 49%, 1.00)" rx="0.5"></rect><rect width="1" height="36.36363636363637" x="72.22727272727273" y="-18.181818181818183" stroke="none" fill="hsla(140, 97%, 49%, 1.00)" rx="0.5"></rect><rect width="36.36363636363637" height="1" x="127.27272727272728" y="-0.5" stroke="none" fill="hsla(140, 97%, 49%, 1.00)" rx="0.5"></rect><rect width="1" height="36.36363636363637" x="144.95454545454547" y="-18.181818181818183" stroke="none" fill="hsla(140, 97%, 49%, 1.00)" rx="0.5"></rect><rect width="36.36363636363637" height="1" x="200" y="-0.5" stroke="none" fill="hsla(140, 97%, 49%, 1.00)" rx="0.5"></rect><rect width="1" height="36.36363636363637" x="217.6818181818182" y="-18.181818181818183" stroke="none" fill="hsla(140, 97%, 49%, 1.00)" rx="0.5"></rect><rect width="36.36363636363637" height="1" x="272.72727272727275" y="-0.5" stroke="none" fill="hsla(140, 97%, 49%, 1.00)" rx="0.5"></rect><rect width="1" height="36.36363636363637" x="290.40909090909093" y="-18.181818181818183" stroke="none" fill="hsla(140, 97%, 49%, 1.00)" rx="0.5"></rect><rect width="36.36363636363637" height="1" x="345.4545454545455" y="-0.5" stroke="none" fill="hsla(140, 97%, 49%, 1.00)" rx="0.5"></rect><rect width="1" height="36.36363636363637" x="363.1363636363637" y="-18.181818181818183" stroke="none" fill="hsla(140, 97%, 49%, 1.00)" rx="0.5"></rect><rect width="36.36363636363637" height="1" x="418.18181818181824" y="-0.5" stroke="none" fill="hsla(140, 97%, 49%, 1.00)" rx="0.5"></rect><rect width="1" height="36.36363636363637" x="435.86363636363643" y="-18.181818181818183" stroke="none" fill="hsla(140, 97%, 49%, 1.00)" rx="0.5"></rect><rect width="36.36363636363637" height="1" x="490.909090909091" y="-0.5" stroke="none" fill="hsla(140, 97%, 49%, 1.00)" rx="0.5"></rect><rect width="1" height="36.36363636363637" x="508.5909090909092" y="-18.181818181818183" stroke="none" fill="hsla(140, 97%, 49%, 1.00)" rx="0.5"></rect><rect width="36.36363636363637" height="1" x="563.6363636363637" y="-0.5" stroke="none" fill="hsla(140, 97%, 49%, 1.00)" rx="0.5"></rect><rect width="1" height="36.36363636363637" x="581.3181818181819" y="-18.181818181818183" stroke="none" fill="hsla(140, 97%, 49%, 1.00)" rx="0.5"></rect><rect width="36.36363636363637" height="1" x="636.3636363636365" y="-0.5" stroke="none" fill="hsla(140, 97%, 49%, 1.00)" rx="0.5"></rect><rect width="1" height="36.36363636363637" x="654.0454545454546" y="-18.181818181818183" stroke="none" fill="hsla(140, 97%, 49%, 1.00)" rx="0.5"></rect><rect width="36.36363636363637" height="1" x="709.0909090909092" y="-0.5" stroke="none" fill="hsla(140, 97%, 49%, 1.00)" rx="0.5"></rect><rect width="1" height="36.36363636363637" x="726.7727272727274" y="-18.181818181818183" stroke="none" fill="hsla(140, 97%, 49%, 1.00)" rx="0.5"></rect><rect width="36.36363636363637" height="1" x="781.818181818182" y="-0.5" stroke="none" fill="hsla(140, 97%, 49%, 1.00)" rx="0.5"></rect><rect width="1" height="36.36363636363637" x="799.5000000000001" y="-18.181818181818183" stroke="none" fill="hsla(140, 97%, 49%, 1.00)" rx="0.5"></rect><rect width="36.36363636363637" height="1" x="-18.181818181818183" y="72.22727272727273" stroke="none" fill="hsla(140, 97%, 49%, 1.00)" rx="0.5"></rect><rect width="1" height="36.36363636363637" x="-0.5" y="54.54545454545455" stroke="none" fill="hsla(140, 97%, 49%, 1.00)" rx="0.5"></rect><rect width="36.36363636363637" height="1" x="54.54545454545455" y="72.22727272727273" stroke="none" fill="hsla(140, 97%, 49%, 1.00)" rx="0.5"></rect><rect width="1" height="36.36363636363637" x="72.22727272727273" y="54.54545454545455" stroke="none" fill="hsla(140, 97%, 49%, 1.00)" rx="0.5"></rect><rect width="36.36363636363637" height="1" x="127.27272727272728" y="72.22727272727273" stroke="none" fill="hsla(140, 97%, 49%, 1.00)" rx="0.5"></rect><rect width="1" height="36.36363636363637" x="144.95454545454547" y="54.54545454545455" stroke="none" fill="hsla(140, 97%, 49%, 1.00)" rx="0.5"></rect><rect width="36.36363636363637" height="1" x="200" y="72.22727272727273" stroke="none" fill="hsla(140, 97%, 49%, 1.00)" rx="0.5"></rect><rect width="1" height="36.36363636363637" x="217.6818181818182" y="54.54545454545455" stroke="none" fill="hsla(140, 97%, 49%, 1.00)" rx="0.5"></rect><rect width="36.36363636363637" height="1" x="272.72727272727275" y="72.22727272727273" stroke="none" fill="hsla(140, 97%, 49%, 1.00)" rx="0.5"></rect><rect width="1" height="36.36363636363637" x="290.40909090909093" y="54.54545454545455" stroke="none" fill="hsla(140, 97%, 49%, 1.00)" rx="0.5"></rect><rect width="36.36363636363637" height="1" x="345.4545454545455" y="72.22727272727273" stroke="none" fill="hsla(140, 97%, 49%, 1.00)" rx="0.5"></rect><rect width="1" height="36.36363636363637" x="363.1363636363637" y="54.54545454545455" stroke="none" fill="hsla(140, 97%, 49%, 1.00)" rx="0.5"></rect><rect width="36.36363636363637" height="1" x="418.18181818181824" y="72.22727272727273" stroke="none" fill="hsla(140, 97%, 49%, 1.00)" rx="0.5"></rect><rect width="1" height="36.36363636363637" x="435.86363636363643" y="54.54545454545455" stroke="none" fill="hsla(140, 97%, 49%, 1.00)" rx="0.5"></rect><rect width="36.36363636363637" height="1" x="490.909090909091" y="72.22727272727273" stroke="none" fill="hsla(140, 97%, 49%, 1.00)" rx="0.5"></rect><rect width="1" height="36.36363636363637" x="508.5909090909092" y="54.54545454545455" stroke="none" fill="hsla(140, 97%, 49%, 1.00)" rx="0.5"></rect><rect width="36.36363636363637" height="1" x="563.6363636363637" y="72.22727272727273" stroke="none" fill="hsla(140, 97%, 49%, 1.00)" rx="0.5"></rect><rect width="1" height="36.36363636363637" x="581.3181818181819" y="54.54545454545455" stroke="none" fill="hsla(140, 97%, 49%, 1.00)" rx="0.5"></rect><rect width="36.36363636363637" height="1" x="636.3636363636365" y="72.22727272727273" stroke="none" fill="hsla(140, 97%, 49%, 1.00)" rx="0.5"></rect><rect width="1" height="36.36363636363637" x="654.0454545454546" y="54.54545454545455" stroke="none" fill="hsla(140, 97%, 49%, 1.00)" rx="0.5"></rect><rect width="36.36363636363637" height="1" x="709.0909090909092" y="72.22727272727273" stroke="none" fill="hsla(140, 97%, 49%, 1.00)" rx="0.5"></rect><rect width="1" height="36.36363636363637" x="726.7727272727274" y="54.54545454545455" stroke="none" fill="hsla(140, 97%, 49%, 1.00)" rx="0.5"></rect><rect width="36.36363636363637" height="1" x="781.818181818182" y="72.22727272727273" stroke="none" fill="hsla(140, 97%, 49%, 1.00)" rx="0.5"></rect><rect width="1" height="36.36363636363637" x="799.5000000000001" y="54.54545454545455" stroke="none" fill="hsla(140, 97%, 49%, 1.00)" rx="0.5"></rect><rect width="36.36363636363637" height="1" x="-18.181818181818183" y="144.95454545454547" stroke="none" fill="hsla(140, 97%, 49%, 1.00)" rx="0.5"></rect><rect width="1" height="36.36363636363637" x="-0.5" y="127.27272727272728" stroke="none" fill="hsla(140, 97%, 49%, 1.00)" rx="0.5"></rect><rect width="36.36363636363637" height="1" x="54.54545454545455" y="144.95454545454547" stroke="none" fill="hsla(140, 97%, 49%, 1.00)" rx="0.5"></rect><rect width="1" height="36.36363636363637" x="72.22727272727273" y="127.27272727272728" stroke="none" fill="hsla(140, 97%, 49%, 1.00)" rx="0.5"></rect><rect width="36.36363636363637" height="1" x="127.27272727272728" y="144.95454545454547" stroke="none" fill="hsla(140, 97%, 49%, 1.00)" rx="0.5"></rect><rect width="1" height="36.36363636363637" x="144.95454545454547" y="127.27272727272728" stroke="none" fill="hsla(140, 97%, 49%, 1.00)" rx="0.5"></rect><rect width="36.36363636363637" height="1" x="200" y="144.95454545454547" stroke="none" fill="hsla(140, 97%, 49%, 1.00)" rx="0.5"></rect><rect width="1" height="36.36363636363637" x="217.6818181818182" y="127.27272727272728" stroke="none" fill="hsla(140, 97%, 49%, 1.00)" rx="0.5"></rect><rect width="36.36363636363637" height="1" x="272.72727272727275" y="144.95454545454547" stroke="none" fill="hsla(140, 97%, 49%, 1.00)" rx="0.5"></rect><rect width="1" height="36.36363636363637" x="290.40909090909093" y="127.27272727272728" stroke="none" fill="hsla(140, 97%, 49%, 1.00)" rx="0.5"></rect><rect width="36.36363636363637" height="1" x="345.4545454545455" y="144.95454545454547" stroke="none" fill="hsla(140, 97%, 49%, 1.00)" rx="0.5"></rect><rect width="1" height="36.36363636363637" x="363.1363636363637" y="127.27272727272728" stroke="none" fill="hsla(140, 97%, 49%, 1.00)" rx="0.5"></rect><rect width="36.36363636363637" height="1" x="418.18181818181824" y="144.95454545454547" stroke="none" fill="hsla(140, 97%, 49%, 1.00)" rx="0.5"></rect><rect width="1" height="36.36363636363637" x="435.86363636363643" y="127.27272727272728" stroke="none" fill="hsla(140, 97%, 49%, 1.00)" rx="0.5"></rect><rect width="36.36363636363637" height="1" x="490.909090909091" y="144.95454545454547" stroke="none" fill="hsla(140, 97%, 49%, 1.00)" rx="0.5"></rect><rect width="1" height="36.36363636363637" x="508.5909090909092" y="127.27272727272728" stroke="none" fill="hsla(140, 97%, 49%, 1.00)" rx="0.5"></rect><rect width="36.36363636363637" height="1" x="563.6363636363637" y="144.95454545454547" stroke="none" fill="hsla(140, 97%, 49%, 1.00)" rx="0.5"></rect><rect width="1" height="36.36363636363637" x="581.3181818181819" y="127.27272727272728" stroke="none" fill="hsla(140, 97%, 49%, 1.00)" rx="0.5"></rect><rect width="36.36363636363637" height="1" x="636.3636363636365" y="144.95454545454547" stroke="none" fill="hsla(140, 97%, 49%, 1.00)" rx="0.5"></rect><rect width="1" height="36.36363636363637" x="654.0454545454546" y="127.27272727272728" stroke="none" fill="hsla(140, 97%, 49%, 1.00)" rx="0.5"></rect><rect width="36.36363636363637" height="1" x="709.0909090909092" y="144.95454545454547" stroke="none" fill="hsla(140, 97%, 49%, 1.00)" rx="0.5"></rect><rect width="1" height="36.36363636363637" x="726.7727272727274" y="127.27272727272728" stroke="none" fill="hsla(140, 97%, 49%, 1.00)" rx="0.5"></rect><rect width="36.36363636363637" height="1" x="781.818181818182" y="144.95454545454547" stroke="none" fill="hsla(140, 97%, 49%, 1.00)" rx="0.5"></rect><rect width="1" height="36.36363636363637" x="799.5000000000001" y="127.27272727272728" stroke="none" fill="hsla(140, 97%, 49%, 1.00)" rx="0.5"></rect><rect width="36.36363636363637" height="1" x="-18.181818181818183" y="217.6818181818182" stroke="none" fill="hsla(140, 97%, 49%, 1.00)" rx="0.5"></rect><rect width="1" height="36.36363636363637" x="-0.5" y="200" stroke="none" fill="hsla(140, 97%, 49%, 1.00)" rx="0.5"></rect><rect width="36.36363636363637" height="1" x="54.54545454545455" y="217.6818181818182" stroke="none" fill="hsla(140, 97%, 49%, 1.00)" rx="0.5"></rect><rect width="1" height="36.36363636363637" x="72.22727272727273" y="200" stroke="none" fill="hsla(140, 97%, 49%, 1.00)" rx="0.5"></rect><rect width="36.36363636363637" height="1" x="127.27272727272728" y="217.6818181818182" stroke="none" fill="hsla(140, 97%, 49%, 1.00)" rx="0.5"></rect><rect width="1" height="36.36363636363637" x="144.95454545454547" y="200" stroke="none" fill="hsla(140, 97%, 49%, 1.00)" rx="0.5"></rect><rect width="36.36363636363637" height="1" x="200" y="217.6818181818182" stroke="none" fill="hsla(140, 97%, 49%, 1.00)" rx="0.5"></rect><rect width="1" height="36.36363636363637" x="217.6818181818182" y="200" stroke="none" fill="hsla(140, 97%, 49%, 1.00)" rx="0.5"></rect><rect width="36.36363636363637" height="1" x="272.72727272727275" y="217.6818181818182" stroke="none" fill="hsla(140, 97%, 49%, 1.00)" rx="0.5"></rect><rect width="1" height="36.36363636363637" x="290.40909090909093" y="200" stroke="none" fill="hsla(140, 97%, 49%, 1.00)" rx="0.5"></rect><rect width="36.36363636363637" height="1" x="345.4545454545455" y="217.6818181818182" stroke="none" fill="hsla(140, 97%, 49%, 1.00)" rx="0.5"></rect><rect width="1" height="36.36363636363637" x="363.1363636363637" y="200" stroke="none" fill="hsla(140, 97%, 49%, 1.00)" rx="0.5"></rect><rect width="36.36363636363637" height="1" x="418.18181818181824" y="217.6818181818182" stroke="none" fill="hsla(140, 97%, 49%, 1.00)" rx="0.5"></rect><rect width="1" height="36.36363636363637" x="435.86363636363643" y="200" stroke="none" fill="hsla(140, 97%, 49%, 1.00)" rx="0.5"></rect><rect width="36.36363636363637" height="1" x="490.909090909091" y="217.6818181818182" stroke="none" fill="hsla(140, 97%, 49%, 1.00)" rx="0.5"></rect><rect width="1" height="36.36363636363637" x="508.5909090909092" y="200" stroke="none" fill="hsla(140, 97%, 49%, 1.00)" rx="0.5"></rect><rect width="36.36363636363637" height="1" x="563.6363636363637" y="217.6818181818182" stroke="none" fill="hsla(140, 97%, 49%, 1.00)" rx="0.5"></rect><rect width="1" height="36.36363636363637" x="581.3181818181819" y="200" stroke="none" fill="hsla(140, 97%, 49%, 1.00)" rx="0.5"></rect><rect width="36.36363636363637" height="1" x="636.3636363636365" y="217.6818181818182" stroke="none" fill="hsla(140, 97%, 49%, 1.00)" rx="0.5"></rect><rect width="1" height="36.36363636363637" x="654.0454545454546" y="200" stroke="none" fill="hsla(140, 97%, 49%, 1.00)" rx="0.5"></rect><rect width="36.36363636363637" height="1" x="709.0909090909092" y="217.6818181818182" stroke="none" fill="hsla(140, 97%, 49%, 1.00)" rx="0.5"></rect><rect width="1" height="36.36363636363637" x="726.7727272727274" y="200" stroke="none" fill="hsla(140, 97%, 49%, 1.00)" rx="0.5"></rect><rect width="36.36363636363637" height="1" x="781.818181818182" y="217.6818181818182" stroke="none" fill="hsla(140, 97%, 49%, 1.00)" rx="0.5"></rect><rect width="1" height="36.36363636363637" x="799.5000000000001" y="200" stroke="none" fill="hsla(140, 97%, 49%, 1.00)" rx="0.5"></rect><rect width="36.36363636363637" height="1" x="-18.181818181818183" y="290.40909090909093" stroke="none" fill="hsla(140, 97%, 49%, 1.00)" rx="0.5"></rect><rect width="1" height="36.36363636363637" x="-0.5" y="272.72727272727275" stroke="none" fill="hsla(140, 97%, 49%, 1.00)" rx="0.5"></rect><rect width="36.36363636363637" height="1" x="54.54545454545455" y="290.40909090909093" stroke="none" fill="hsla(140, 97%, 49%, 1.00)" rx="0.5"></rect><rect width="1" height="36.36363636363637" x="72.22727272727273" y="272.72727272727275" stroke="none" fill="hsla(140, 97%, 49%, 1.00)" rx="0.5"></rect><rect width="36.36363636363637" height="1" x="127.27272727272728" y="290.40909090909093" stroke="none" fill="hsla(140, 97%, 49%, 1.00)" rx="0.5"></rect><rect width="1" height="36.36363636363637" x="144.95454545454547" y="272.72727272727275" stroke="none" fill="hsla(140, 97%, 49%, 1.00)" rx="0.5"></rect><rect width="36.36363636363637" height="1" x="200" y="290.40909090909093" stroke="none" fill="hsla(140, 97%, 49%, 1.00)" rx="0.5"></rect><rect width="1" height="36.36363636363637" x="217.6818181818182" y="272.72727272727275" stroke="none" fill="hsla(140, 97%, 49%, 1.00)" rx="0.5"></rect><rect width="36.36363636363637" height="1" x="272.72727272727275" y="290.40909090909093" stroke="none" fill="hsla(140, 97%, 49%, 1.00)" rx="0.5"></rect><rect width="1" height="36.36363636363637" x="290.40909090909093" y="272.72727272727275" stroke="none" fill="hsla(140, 97%, 49%, 1.00)" rx="0.5"></rect><rect width="36.36363636363637" height="1" x="345.4545454545455" y="290.40909090909093" stroke="none" fill="hsla(140, 97%, 49%, 1.00)" rx="0.5"></rect><rect width="1" height="36.36363636363637" x="363.1363636363637" y="272.72727272727275" stroke="none" fill="hsla(140, 97%, 49%, 1.00)" rx="0.5"></rect><rect width="36.36363636363637" height="1" x="418.18181818181824" y="290.40909090909093" stroke="none" fill="hsla(140, 97%, 49%, 1.00)" rx="0.5"></rect><rect width="1" height="36.36363636363637" x="435.86363636363643" y="272.72727272727275" stroke="none" fill="hsla(140, 97%, 49%, 1.00)" rx="0.5"></rect><rect width="36.36363636363637" height="1" x="490.909090909091" y="290.40909090909093" stroke="none" fill="hsla(140, 97%, 49%, 1.00)" rx="0.5"></rect><rect width="1" height="36.36363636363637" x="508.5909090909092" y="272.72727272727275" stroke="none" fill="hsla(140, 97%, 49%, 1.00)" rx="0.5"></rect><rect width="36.36363636363637" height="1" x="563.6363636363637" y="290.40909090909093" stroke="none" fill="hsla(140, 97%, 49%, 1.00)" rx="0.5"></rect><rect width="1" height="36.36363636363637" x="581.3181818181819" y="272.72727272727275" stroke="none" fill="hsla(140, 97%, 49%, 1.00)" rx="0.5"></rect><rect width="36.36363636363637" height="1" x="636.3636363636365" y="290.40909090909093" stroke="none" fill="hsla(140, 97%, 49%, 1.00)" rx="0.5"></rect><rect width="1" height="36.36363636363637" x="654.0454545454546" y="272.72727272727275" stroke="none" fill="hsla(140, 97%, 49%, 1.00)" rx="0.5"></rect><rect width="36.36363636363637" height="1" x="709.0909090909092" y="290.40909090909093" stroke="none" fill="hsla(140, 97%, 49%, 1.00)" rx="0.5"></rect><rect width="1" height="36.36363636363637" x="726.7727272727274" y="272.72727272727275" stroke="none" fill="hsla(140, 97%, 49%, 1.00)" rx="0.5"></rect><rect width="36.36363636363637" height="1" x="781.818181818182" y="290.40909090909093" stroke="none" fill="hsla(140, 97%, 49%, 1.00)" rx="0.5"></rect><rect width="1" height="36.36363636363637" x="799.5000000000001" y="272.72727272727275" stroke="none" fill="hsla(140, 97%, 49%, 1.00)" rx="0.5"></rect><rect width="36.36363636363637" height="1" x="-18.181818181818183" y="363.1363636363637" stroke="none" fill="hsla(140, 97%, 49%, 1.00)" rx="0.5"></rect><rect width="1" height="36.36363636363637" x="-0.5" y="345.4545454545455" stroke="none" fill="hsla(140, 97%, 49%, 1.00)" rx="0.5"></rect><rect width="36.36363636363637" height="1" x="54.54545454545455" y="363.1363636363637" stroke="none" fill="hsla(140, 97%, 49%, 1.00)" rx="0.5"></rect><rect width="1" height="36.36363636363637" x="72.22727272727273" y="345.4545454545455" stroke="none" fill="hsla(140, 97%, 49%, 1.00)" rx="0.5"></rect><rect width="36.36363636363637" height="1" x="127.27272727272728" y="363.1363636363637" stroke="none" fill="hsla(140, 97%, 49%, 1.00)" rx="0.5"></rect><rect width="1" height="36.36363636363637" x="144.95454545454547" y="345.4545454545455" stroke="none" fill="hsla(140, 97%, 49%, 1.00)" rx="0.5"></rect><rect width="36.36363636363637" height="1" x="200" y="363.1363636363637" stroke="none" fill="hsla(140, 97%, 49%, 1.00)" rx="0.5"></rect><rect width="1" height="36.36363636363637" x="217.6818181818182" y="345.4545454545455" stroke="none" fill="hsla(140, 97%, 49%, 1.00)" rx="0.5"></rect><rect width="36.36363636363637" height="1" x="272.72727272727275" y="363.1363636363637" stroke="none" fill="hsla(140, 97%, 49%, 1.00)" rx="0.5"></rect><rect width="1" height="36.36363636363637" x="290.40909090909093" y="345.4545454545455" stroke="none" fill="hsla(140, 97%, 49%, 1.00)" rx="0.5"></rect><rect width="36.36363636363637" height="1" x="345.4545454545455" y="363.1363636363637" stroke="none" fill="hsla(140, 97%, 49%, 1.00)" rx="0.5"></rect><rect width="1" height="36.36363636363637" x="363.1363636363637" y="345.4545454545455" stroke="none" fill="hsla(140, 97%, 49%, 1.00)" rx="0.5"></rect><rect width="36.36363636363637" height="1" x="418.18181818181824" y="363.1363636363637" stroke="none" fill="hsla(140, 97%, 49%, 1.00)" rx="0.5"></rect><rect width="1" height="36.36363636363637" x="435.86363636363643" y="345.4545454545455" stroke="none" fill="hsla(140, 97%, 49%, 1.00)" rx="0.5"></rect><rect width="36.36363636363637" height="1" x="490.909090909091" y="363.1363636363637" stroke="none" fill="hsla(140, 97%, 49%, 1.00)" rx="0.5"></rect><rect width="1" height="36.36363636363637" x="508.5909090909092" y="345.4545454545455" stroke="none" fill="hsla(140, 97%, 49%, 1.00)" rx="0.5"></rect><rect width="36.36363636363637" height="1" x="563.6363636363637" y="363.1363636363637" stroke="none" fill="hsla(140, 97%, 49%, 1.00)" rx="0.5"></rect><rect width="1" height="36.36363636363637" x="581.3181818181819" y="345.4545454545455" stroke="none" fill="hsla(140, 97%, 49%, 1.00)" rx="0.5"></rect><rect width="36.36363636363637" height="1" x="636.3636363636365" y="363.1363636363637" stroke="none" fill="hsla(140, 97%, 49%, 1.00)" rx="0.5"></rect><rect width="1" height="36.36363636363637" x="654.0454545454546" y="345.4545454545455" stroke="none" fill="hsla(140, 97%, 49%, 1.00)" rx="0.5"></rect><rect width="36.36363636363637" height="1" x="709.0909090909092" y="363.1363636363637" stroke="none" fill="hsla(140, 97%, 49%, 1.00)" rx="0.5"></rect><rect width="1" height="36.36363636363637" x="726.7727272727274" y="345.4545454545455" stroke="none" fill="hsla(140, 97%, 49%, 1.00)" rx="0.5"></rect><rect width="36.36363636363637" height="1" x="781.818181818182" y="363.1363636363637" stroke="none" fill="hsla(140, 97%, 49%, 1.00)" rx="0.5"></rect><rect width="1" height="36.36363636363637" x="799.5000000000001" y="345.4545454545455" stroke="none" fill="hsla(140, 97%, 49%, 1.00)" rx="0.5"></rect><rect width="36.36363636363637" height="1" x="-18.181818181818183" y="435.86363636363643" stroke="none" fill="hsla(140, 97%, 49%, 1.00)" rx="0.5"></rect><rect width="1" height="36.36363636363637" x="-0.5" y="418.18181818181824" stroke="none" fill="hsla(140, 97%, 49%, 1.00)" rx="0.5"></rect><rect width="36.36363636363637" height="1" x="54.54545454545455" y="435.86363636363643" stroke="none" fill="hsla(140, 97%, 49%, 1.00)" rx="0.5"></rect><rect width="1" height="36.36363636363637" x="72.22727272727273" y="418.18181818181824" stroke="none" fill="hsla(140, 97%, 49%, 1.00)" rx="0.5"></rect><rect width="36.36363636363637" height="1" x="127.27272727272728" y="435.86363636363643" stroke="none" fill="hsla(140, 97%, 49%, 1.00)" rx="0.5"></rect><rect width="1" height="36.36363636363637" x="144.95454545454547" y="418.18181818181824" stroke="none" fill="hsla(140, 97%, 49%, 1.00)" rx="0.5"></rect><rect width="36.36363636363637" height="1" x="200" y="435.86363636363643" stroke="none" fill="hsla(140, 97%, 49%, 1.00)" rx="0.5"></rect><rect width="1" height="36.36363636363637" x="217.6818181818182" y="418.18181818181824" stroke="none" fill="hsla(140, 97%, 49%, 1.00)" rx="0.5"></rect><rect width="36.36363636363637" height="1" x="272.72727272727275" y="435.86363636363643" stroke="none" fill="hsla(140, 97%, 49%, 1.00)" rx="0.5"></rect><rect width="1" height="36.36363636363637" x="290.40909090909093" y="418.18181818181824" stroke="none" fill="hsla(140, 97%, 49%, 1.00)" rx="0.5"></rect><rect width="36.36363636363637" height="1" x="345.4545454545455" y="435.86363636363643" stroke="none" fill="hsla(140, 97%, 49%, 1.00)" rx="0.5"></rect><rect width="1" height="36.36363636363637" x="363.1363636363637" y="418.18181818181824" stroke="none" fill="hsla(140, 97%, 49%, 1.00)" rx="0.5"></rect><rect width="36.36363636363637" height="1" x="418.18181818181824" y="435.86363636363643" stroke="none" fill="hsla(140, 97%, 49%, 1.00)" rx="0.5"></rect><rect width="1" height="36.36363636363637" x="435.86363636363643" y="418.18181818181824" stroke="none" fill="hsla(140, 97%, 49%, 1.00)" rx="0.5"></rect><rect width="36.36363636363637" height="1" x="490.909090909091" y="435.86363636363643" stroke="none" fill="hsla(140, 97%, 49%, 1.00)" rx="0.5"></rect><rect width="1" height="36.36363636363637" x="508.5909090909092" y="418.18181818181824" stroke="none" fill="hsla(140, 97%, 49%, 1.00)" rx="0.5"></rect><rect width="36.36363636363637" height="1" x="563.6363636363637" y="435.86363636363643" stroke="none" fill="hsla(140, 97%, 49%, 1.00)" rx="0.5"></rect><rect width="1" height="36.36363636363637" x="581.3181818181819" y="418.18181818181824" stroke="none" fill="hsla(140, 97%, 49%, 1.00)" rx="0.5"></rect><rect width="36.36363636363637" height="1" x="636.3636363636365" y="435.86363636363643" stroke="none" fill="hsla(140, 97%, 49%, 1.00)" rx="0.5"></rect><rect width="1" height="36.36363636363637" x="654.0454545454546" y="418.18181818181824" stroke="none" fill="hsla(140, 97%, 49%, 1.00)" rx="0.5"></rect><rect width="36.36363636363637" height="1" x="709.0909090909092" y="435.86363636363643" stroke="none" fill="hsla(140, 97%, 49%, 1.00)" rx="0.5"></rect><rect width="1" height="36.36363636363637" x="726.7727272727274" y="418.18181818181824" stroke="none" fill="hsla(140, 97%, 49%, 1.00)" rx="0.5"></rect><rect width="36.36363636363637" height="1" x="781.818181818182" y="435.86363636363643" stroke="none" fill="hsla(140, 97%, 49%, 1.00)" rx="0.5"></rect><rect width="1" height="36.36363636363637" x="799.5000000000001" y="418.18181818181824" stroke="none" fill="hsla(140, 97%, 49%, 1.00)" rx="0.5"></rect><rect width="36.36363636363637" height="1" x="-18.181818181818183" y="508.5909090909092" stroke="none" fill="hsla(140, 97%, 49%, 1.00)" rx="0.5"></rect><rect width="1" height="36.36363636363637" x="-0.5" y="490.909090909091" stroke="none" fill="hsla(140, 97%, 49%, 1.00)" rx="0.5"></rect><rect width="36.36363636363637" height="1" x="54.54545454545455" y="508.5909090909092" stroke="none" fill="hsla(140, 97%, 49%, 1.00)" rx="0.5"></rect><rect width="1" height="36.36363636363637" x="72.22727272727273" y="490.909090909091" stroke="none" fill="hsla(140, 97%, 49%, 1.00)" rx="0.5"></rect><rect width="36.36363636363637" height="1" x="127.27272727272728" y="508.5909090909092" stroke="none" fill="hsla(140, 97%, 49%, 1.00)" rx="0.5"></rect><rect width="1" height="36.36363636363637" x="144.95454545454547" y="490.909090909091" stroke="none" fill="hsla(140, 97%, 49%, 1.00)" rx="0.5"></rect><rect width="36.36363636363637" height="1" x="200" y="508.5909090909092" stroke="none" fill="hsla(140, 97%, 49%, 1.00)" rx="0.5"></rect><rect width="1" height="36.36363636363637" x="217.6818181818182" y="490.909090909091" stroke="none" fill="hsla(140, 97%, 49%, 1.00)" rx="0.5"></rect><rect width="36.36363636363637" height="1" x="272.72727272727275" y="508.5909090909092" stroke="none" fill="hsla(140, 97%, 49%, 1.00)" rx="0.5"></rect><rect width="1" height="36.36363636363637" x="290.40909090909093" y="490.909090909091" stroke="none" fill="hsla(140, 97%, 49%, 1.00)" rx="0.5"></rect><rect width="36.36363636363637" height="1" x="345.4545454545455" y="508.5909090909092" stroke="none" fill="hsla(140, 97%, 49%, 1.00)" rx="0.5"></rect><rect width="1" height="36.36363636363637" x="363.1363636363637" y="490.909090909091" stroke="none" fill="hsla(140, 97%, 49%, 1.00)" rx="0.5"></rect><rect width="36.36363636363637" height="1" x="418.18181818181824" y="508.5909090909092" stroke="none" fill="hsla(140, 97%, 49%, 1.00)" rx="0.5"></rect><rect width="1" height="36.36363636363637" x="435.86363636363643" y="490.909090909091" stroke="none" fill="hsla(140, 97%, 49%, 1.00)" rx="0.5"></rect><rect width="36.36363636363637" height="1" x="490.909090909091" y="508.5909090909092" stroke="none" fill="hsla(140, 97%, 49%, 1.00)" rx="0.5"></rect><rect width="1" height="36.36363636363637" x="508.5909090909092" y="490.909090909091" stroke="none" fill="hsla(140, 97%, 49%, 1.00)" rx="0.5"></rect><rect width="36.36363636363637" height="1" x="563.6363636363637" y="508.5909090909092" stroke="none" fill="hsla(140, 97%, 49%, 1.00)" rx="0.5"></rect><rect width="1" height="36.36363636363637" x="581.3181818181819" y="490.909090909091" stroke="none" fill="hsla(140, 97%, 49%, 1.00)" rx="0.5"></rect><rect width="36.36363636363637" height="1" x="636.3636363636365" y="508.5909090909092" stroke="none" fill="hsla(140, 97%, 49%, 1.00)" rx="0.5"></rect><rect width="1" height="36.36363636363637" x="654.0454545454546" y="490.909090909091" stroke="none" fill="hsla(140, 97%, 49%, 1.00)" rx="0.5"></rect><rect width="36.36363636363637" height="1" x="709.0909090909092" y="508.5909090909092" stroke="none" fill="hsla(140, 97%, 49%, 1.00)" rx="0.5"></rect><rect width="1" height="36.36363636363637" x="726.7727272727274" y="490.909090909091" stroke="none" fill="hsla(140, 97%, 49%, 1.00)" rx="0.5"></rect><rect width="36.36363636363637" height="1" x="781.818181818182" y="508.5909090909092" stroke="none" fill="hsla(140, 97%, 49%, 1.00)" rx="0.5"></rect><rect width="1" height="36.36363636363637" x="799.5000000000001" y="490.909090909091" stroke="none" fill="hsla(140, 97%, 49%, 1.00)" rx="0.5"></rect><rect width="36.36363636363637" height="1" x="-18.181818181818183" y="581.3181818181819" stroke="none" fill="hsla(140, 97%, 49%, 1.00)" rx="0.5"></rect><rect width="1" height="36.36363636363637" x="-0.5" y="563.6363636363637" stroke="none" fill="hsla(140, 97%, 49%, 1.00)" rx="0.5"></rect><rect width="36.36363636363637" height="1" x="54.54545454545455" y="581.3181818181819" stroke="none" fill="hsla(140, 97%, 49%, 1.00)" rx="0.5"></rect><rect width="1" height="36.36363636363637" x="72.22727272727273" y="563.6363636363637" stroke="none" fill="hsla(140, 97%, 49%, 1.00)" rx="0.5"></rect><rect width="36.36363636363637" height="1" x="127.27272727272728" y="581.3181818181819" stroke="none" fill="hsla(140, 97%, 49%, 1.00)" rx="0.5"></rect><rect width="1" height="36.36363636363637" x="144.95454545454547" y="563.6363636363637" stroke="none" fill="hsla(140, 97%, 49%, 1.00)" rx="0.5"></rect><rect width="36.36363636363637" height="1" x="200" y="581.3181818181819" stroke="none" fill="hsla(140, 97%, 49%, 1.00)" rx="0.5"></rect><rect width="1" height="36.36363636363637" x="217.6818181818182" y="563.6363636363637" stroke="none" fill="hsla(140, 97%, 49%, 1.00)" rx="0.5"></rect><rect width="36.36363636363637" height="1" x="272.72727272727275" y="581.3181818181819" stroke="none" fill="hsla(140, 97%, 49%, 1.00)" rx="0.5"></rect><rect width="1" height="36.36363636363637" x="290.40909090909093" y="563.6363636363637" stroke="none" fill="hsla(140, 97%, 49%, 1.00)" rx="0.5"></rect><rect width="36.36363636363637" height="1" x="345.4545454545455" y="581.3181818181819" stroke="none" fill="hsla(140, 97%, 49%, 1.00)" rx="0.5"></rect><rect width="1" height="36.36363636363637" x="363.1363636363637" y="563.6363636363637" stroke="none" fill="hsla(140, 97%, 49%, 1.00)" rx="0.5"></rect><rect width="36.36363636363637" height="1" x="418.18181818181824" y="581.3181818181819" stroke="none" fill="hsla(140, 97%, 49%, 1.00)" rx="0.5"></rect><rect width="1" height="36.36363636363637" x="435.86363636363643" y="563.6363636363637" stroke="none" fill="hsla(140, 97%, 49%, 1.00)" rx="0.5"></rect><rect width="36.36363636363637" height="1" x="490.909090909091" y="581.3181818181819" stroke="none" fill="hsla(140, 97%, 49%, 1.00)" rx="0.5"></rect><rect width="1" height="36.36363636363637" x="508.5909090909092" y="563.6363636363637" stroke="none" fill="hsla(140, 97%, 49%, 1.00)" rx="0.5"></rect><rect width="36.36363636363637" height="1" x="563.6363636363637" y="581.3181818181819" stroke="none" fill="hsla(140, 97%, 49%, 1.00)" rx="0.5"></rect><rect width="1" height="36.36363636363637" x="581.3181818181819" y="563.6363636363637" stroke="none" fill="hsla(140, 97%, 49%, 1.00)" rx="0.5"></rect><rect width="36.36363636363637" height="1" x="636.3636363636365" y="581.3181818181819" stroke="none" fill="hsla(140, 97%, 49%, 1.00)" rx="0.5"></rect><rect width="1" height="36.36363636363637" x="654.0454545454546" y="563.6363636363637" stroke="none" fill="hsla(140, 97%, 49%, 1.00)" rx="0.5"></rect><rect width="36.36363636363637" height="1" x="709.0909090909092" y="581.3181818181819" stroke="none" fill="hsla(140, 97%, 49%, 1.00)" rx="0.5"></rect><rect width="1" height="36.36363636363637" x="726.7727272727274" y="563.6363636363637" stroke="none" fill="hsla(140, 97%, 49%, 1.00)" rx="0.5"></rect><rect width="36.36363636363637" height="1" x="781.818181818182" y="581.3181818181819" stroke="none" fill="hsla(140, 97%, 49%, 1.00)" rx="0.5"></rect><rect width="1" height="36.36363636363637" x="799.5000000000001" y="563.6363636363637" stroke="none" fill="hsla(140, 97%, 49%, 1.00)" rx="0.5"></rect><rect width="36.36363636363637" height="1" x="-18.181818181818183" y="654.0454545454546" stroke="none" fill="hsla(140, 97%, 49%, 1.00)" rx="0.5"></rect><rect width="1" height="36.36363636363637" x="-0.5" y="636.3636363636365" stroke="none" fill="hsla(140, 97%, 49%, 1.00)" rx="0.5"></rect><rect width="36.36363636363637" height="1" x="54.54545454545455" y="654.0454545454546" stroke="none" fill="hsla(140, 97%, 49%, 1.00)" rx="0.5"></rect><rect width="1" height="36.36363636363637" x="72.22727272727273" y="636.3636363636365" stroke="none" fill="hsla(140, 97%, 49%, 1.00)" rx="0.5"></rect><rect width="36.36363636363637" height="1" x="127.27272727272728" y="654.0454545454546" stroke="none" fill="hsla(140, 97%, 49%, 1.00)" rx="0.5"></rect><rect width="1" height="36.36363636363637" x="144.95454545454547" y="636.3636363636365" stroke="none" fill="hsla(140, 97%, 49%, 1.00)" rx="0.5"></rect><rect width="36.36363636363637" height="1" x="200" y="654.0454545454546" stroke="none" fill="hsla(140, 97%, 49%, 1.00)" rx="0.5"></rect><rect width="1" height="36.36363636363637" x="217.6818181818182" y="636.3636363636365" stroke="none" fill="hsla(140, 97%, 49%, 1.00)" rx="0.5"></rect><rect width="36.36363636363637" height="1" x="272.72727272727275" y="654.0454545454546" stroke="none" fill="hsla(140, 97%, 49%, 1.00)" rx="0.5"></rect><rect width="1" height="36.36363636363637" x="290.40909090909093" y="636.3636363636365" stroke="none" fill="hsla(140, 97%, 49%, 1.00)" rx="0.5"></rect><rect width="36.36363636363637" height="1" x="345.4545454545455" y="654.0454545454546" stroke="none" fill="hsla(140, 97%, 49%, 1.00)" rx="0.5"></rect><rect width="1" height="36.36363636363637" x="363.1363636363637" y="636.3636363636365" stroke="none" fill="hsla(140, 97%, 49%, 1.00)" rx="0.5"></rect><rect width="36.36363636363637" height="1" x="418.18181818181824" y="654.0454545454546" stroke="none" fill="hsla(140, 97%, 49%, 1.00)" rx="0.5"></rect><rect width="1" height="36.36363636363637" x="435.86363636363643" y="636.3636363636365" stroke="none" fill="hsla(140, 97%, 49%, 1.00)" rx="0.5"></rect><rect width="36.36363636363637" height="1" x="490.909090909091" y="654.0454545454546" stroke="none" fill="hsla(140, 97%, 49%, 1.00)" rx="0.5"></rect><rect width="1" height="36.36363636363637" x="508.5909090909092" y="636.3636363636365" stroke="none" fill="hsla(140, 97%, 49%, 1.00)" rx="0.5"></rect><rect width="36.36363636363637" height="1" x="563.6363636363637" y="654.0454545454546" stroke="none" fill="hsla(140, 97%, 49%, 1.00)" rx="0.5"></rect><rect width="1" height="36.36363636363637" x="581.3181818181819" y="636.3636363636365" stroke="none" fill="hsla(140, 97%, 49%, 1.00)" rx="0.5"></rect><rect width="36.36363636363637" height="1" x="636.3636363636365" y="654.0454545454546" stroke="none" fill="hsla(140, 97%, 49%, 1.00)" rx="0.5"></rect><rect width="1" height="36.36363636363637" x="654.0454545454546" y="636.3636363636365" stroke="none" fill="hsla(140, 97%, 49%, 1.00)" rx="0.5"></rect><rect width="36.36363636363637" height="1" x="709.0909090909092" y="654.0454545454546" stroke="none" fill="hsla(140, 97%, 49%, 1.00)" rx="0.5"></rect><rect width="1" height="36.36363636363637" x="726.7727272727274" y="636.3636363636365" stroke="none" fill="hsla(140, 97%, 49%, 1.00)" rx="0.5"></rect><rect width="36.36363636363637" height="1" x="781.818181818182" y="654.0454545454546" stroke="none" fill="hsla(140, 97%, 49%, 1.00)" rx="0.5"></rect><rect width="1" height="36.36363636363637" x="799.5000000000001" y="636.3636363636365" stroke="none" fill="hsla(140, 97%, 49%, 1.00)" rx="0.5"></rect><rect width="36.36363636363637" height="1" x="-18.181818181818183" y="726.7727272727274" stroke="none" fill="hsla(140, 97%, 49%, 1.00)" rx="0.5"></rect><rect width="1" height="36.36363636363637" x="-0.5" y="709.0909090909092" stroke="none" fill="hsla(140, 97%, 49%, 1.00)" rx="0.5"></rect><rect width="36.36363636363637" height="1" x="54.54545454545455" y="726.7727272727274" stroke="none" fill="hsla(140, 97%, 49%, 1.00)" rx="0.5"></rect><rect width="1" height="36.36363636363637" x="72.22727272727273" y="709.0909090909092" stroke="none" fill="hsla(140, 97%, 49%, 1.00)" rx="0.5"></rect><rect width="36.36363636363637" height="1" x="127.27272727272728" y="726.7727272727274" stroke="none" fill="hsla(140, 97%, 49%, 1.00)" rx="0.5"></rect><rect width="1" height="36.36363636363637" x="144.95454545454547" y="709.0909090909092" stroke="none" fill="hsla(140, 97%, 49%, 1.00)" rx="0.5"></rect><rect width="36.36363636363637" height="1" x="200" y="726.7727272727274" stroke="none" fill="hsla(140, 97%, 49%, 1.00)" rx="0.5"></rect><rect width="1" height="36.36363636363637" x="217.6818181818182" y="709.0909090909092" stroke="none" fill="hsla(140, 97%, 49%, 1.00)" rx="0.5"></rect><rect width="36.36363636363637" height="1" x="272.72727272727275" y="726.7727272727274" stroke="none" fill="hsla(140, 97%, 49%, 1.00)" rx="0.5"></rect><rect width="1" height="36.36363636363637" x="290.40909090909093" y="709.0909090909092" stroke="none" fill="hsla(140, 97%, 49%, 1.00)" rx="0.5"></rect><rect width="36.36363636363637" height="1" x="345.4545454545455" y="726.7727272727274" stroke="none" fill="hsla(140, 97%, 49%, 1.00)" rx="0.5"></rect><rect width="1" height="36.36363636363637" x="363.1363636363637" y="709.0909090909092" stroke="none" fill="hsla(140, 97%, 49%, 1.00)" rx="0.5"></rect><rect width="36.36363636363637" height="1" x="418.18181818181824" y="726.7727272727274" stroke="none" fill="hsla(140, 97%, 49%, 1.00)" rx="0.5"></rect><rect width="1" height="36.36363636363637" x="435.86363636363643" y="709.0909090909092" stroke="none" fill="hsla(140, 97%, 49%, 1.00)" rx="0.5"></rect><rect width="36.36363636363637" height="1" x="490.909090909091" y="726.7727272727274" stroke="none" fill="hsla(140, 97%, 49%, 1.00)" rx="0.5"></rect><rect width="1" height="36.36363636363637" x="508.5909090909092" y="709.0909090909092" stroke="none" fill="hsla(140, 97%, 49%, 1.00)" rx="0.5"></rect><rect width="36.36363636363637" height="1" x="563.6363636363637" y="726.7727272727274" stroke="none" fill="hsla(140, 97%, 49%, 1.00)" rx="0.5"></rect><rect width="1" height="36.36363636363637" x="581.3181818181819" y="709.0909090909092" stroke="none" fill="hsla(140, 97%, 49%, 1.00)" rx="0.5"></rect><rect width="36.36363636363637" height="1" x="636.3636363636365" y="726.7727272727274" stroke="none" fill="hsla(140, 97%, 49%, 1.00)" rx="0.5"></rect><rect width="1" height="36.36363636363637" x="654.0454545454546" y="709.0909090909092" stroke="none" fill="hsla(140, 97%, 49%, 1.00)" rx="0.5"></rect><rect width="36.36363636363637" height="1" x="709.0909090909092" y="726.7727272727274" stroke="none" fill="hsla(140, 97%, 49%, 1.00)" rx="0.5"></rect><rect width="1" height="36.36363636363637" x="726.7727272727274" y="709.0909090909092" stroke="none" fill="hsla(140, 97%, 49%, 1.00)" rx="0.5"></rect><rect width="36.36363636363637" height="1" x="781.818181818182" y="726.7727272727274" stroke="none" fill="hsla(140, 97%, 49%, 1.00)" rx="0.5"></rect><rect width="1" height="36.36363636363637" x="799.5000000000001" y="709.0909090909092" stroke="none" fill="hsla(140, 97%, 49%, 1.00)" rx="0.5"></rect><rect width="36.36363636363637" height="1" x="-18.181818181818183" y="799.5000000000001" stroke="none" fill="hsla(140, 97%, 49%, 1.00)" rx="0.5"></rect><rect width="1" height="36.36363636363637" x="-0.5" y="781.818181818182" stroke="none" fill="hsla(140, 97%, 49%, 1.00)" rx="0.5"></rect><rect width="36.36363636363637" height="1" x="54.54545454545455" y="799.5000000000001" stroke="none" fill="hsla(140, 97%, 49%, 1.00)" rx="0.5"></rect><rect width="1" height="36.36363636363637" x="72.22727272727273" y="781.818181818182" stroke="none" fill="hsla(140, 97%, 49%, 1.00)" rx="0.5"></rect><rect width="36.36363636363637" height="1" x="127.27272727272728" y="799.5000000000001" stroke="none" fill="hsla(140, 97%, 49%, 1.00)" rx="0.5"></rect><rect width="1" height="36.36363636363637" x="144.95454545454547" y="781.818181818182" stroke="none" fill="hsla(140, 97%, 49%, 1.00)" rx="0.5"></rect><rect width="36.36363636363637" height="1" x="200" y="799.5000000000001" stroke="none" fill="hsla(140, 97%, 49%, 1.00)" rx="0.5"></rect><rect width="1" height="36.36363636363637" x="217.6818181818182" y="781.818181818182" stroke="none" fill="hsla(140, 97%, 49%, 1.00)" rx="0.5"></rect><rect width="36.36363636363637" height="1" x="272.72727272727275" y="799.5000000000001" stroke="none" fill="hsla(140, 97%, 49%, 1.00)" rx="0.5"></rect><rect width="1" height="36.36363636363637" x="290.40909090909093" y="781.818181818182" stroke="none" fill="hsla(140, 97%, 49%, 1.00)" rx="0.5"></rect><rect width="36.36363636363637" height="1" x="345.4545454545455" y="799.5000000000001" stroke="none" fill="hsla(140, 97%, 49%, 1.00)" rx="0.5"></rect><rect width="1" height="36.36363636363637" x="363.1363636363637" y="781.818181818182" stroke="none" fill="hsla(140, 97%, 49%, 1.00)" rx="0.5"></rect><rect width="36.36363636363637" height="1" x="418.18181818181824" y="799.5000000000001" stroke="none" fill="hsla(140, 97%, 49%, 1.00)" rx="0.5"></rect><rect width="1" height="36.36363636363637" x="435.86363636363643" y="781.818181818182" stroke="none" fill="hsla(140, 97%, 49%, 1.00)" rx="0.5"></rect><rect width="36.36363636363637" height="1" x="490.909090909091" y="799.5000000000001" stroke="none" fill="hsla(140, 97%, 49%, 1.00)" rx="0.5"></rect><rect width="1" height="36.36363636363637" x="508.5909090909092" y="781.818181818182" stroke="none" fill="hsla(140, 97%, 49%, 1.00)" rx="0.5"></rect><rect width="36.36363636363637" height="1" x="563.6363636363637" y="799.5000000000001" stroke="none" fill="hsla(140, 97%, 49%, 1.00)" rx="0.5"></rect><rect width="1" height="36.36363636363637" x="581.3181818181819" y="781.818181818182" stroke="none" fill="hsla(140, 97%, 49%, 1.00)" rx="0.5"></rect><rect width="36.36363636363637" height="1" x="636.3636363636365" y="799.5000000000001" stroke="none" fill="hsla(140, 97%, 49%, 1.00)" rx="0.5"></rect><rect width="1" height="36.36363636363637" x="654.0454545454546" y="781.818181818182" stroke="none" fill="hsla(140, 97%, 49%, 1.00)" rx="0.5"></rect><rect width="36.36363636363637" height="1" x="709.0909090909092" y="799.5000000000001" stroke="none" fill="hsla(140, 97%, 49%, 1.00)" rx="0.5"></rect><rect width="1" height="36.36363636363637" x="726.7727272727274" y="781.818181818182" stroke="none" fill="hsla(140, 97%, 49%, 1.00)" rx="0.5"></rect><rect width="36.36363636363637" height="1" x="781.818181818182" y="799.5000000000001" stroke="none" fill="hsla(140, 97%, 49%, 1.00)" rx="0.5"></rect><rect width="1" height="36.36363636363637" x="799.5000000000001" y="781.818181818182" stroke="none" fill="hsla(140, 97%, 49%, 1.00)" rx="0.5"></rect></g></svg>